<svg width="24" height="24" viewBox="0 0 24 24" fill="none" xmlns="http://www.w3.org/2000/svg">
<path fill-rule="evenodd" clip-rule="evenodd" d="M13.4142 3.00003C12.6332 2.21898 11.3668 2.21898 10.5858 3.00003L5 8.58582C4.21895 9.36687 4.21895 10.6332 5 11.4142L10.5858 17C11.3668 17.7811 12.6332 17.7811 13.4142 17L19 11.4142C19.781 10.6332 19.7811 9.36687 19 8.58582L13.4142 3.00003ZM6.41421 10L12 4.41425L17.5858 10L12 15.5858L6.41421 10ZM4.18783 15.9437C4.99029 17.0116 6.50908 18.7392 8.30906 20H15.691C17.4909 18.7392 19.0097 17.0117 19.8122 15.9438C20.2119 15.4119 20.8393 15.4476 21.1895 15.62C21.5415 15.7933 21.9605 16.2786 21.7655 16.9287L20.6715 20.5747C20.4177 21.4207 19.6391 22 18.7559 22H16H8.00004H5.24397C4.36073 22 3.58208 21.4206 3.3283 20.5747L2.23455 16.9285C2.03956 16.2785 2.45849 15.7932 2.8105 15.6199C3.16073 15.4475 3.7881 15.4118 4.18783 15.9437Z" fill="white"/>
</svg>
